# xmcd
#
# Track frame offsets: 
#        150
#        22810
#        42987
#        81607
#        102017
#        127126
#        166327
#        205019
#        231158
#
# Disc length: 4014 seconds
#
# Revision: 0
# Processed by: cddbd v1.5.2PL0 Copyright (c) Steve Scherf et al.
# Submitted via: ExactAudioCopyFreeDBPlugin 1.0
#
DISCID=700fac09
DTITLE=Jimmy Smith - The Best of Jimmy Smith, 1956-1962 [Real Gone Jaz
DTITLE=z]
DYEAR=2016
DGENRE=Rhythm and Blues
TTITLE0=The Way You Look Tonight
TTITLE1=But Not for Me
TTITLE2=The Champ
TTITLE3=Moonlight in Vermont
TTITLE4=There Will Never Be Another You
TTITLE5=Blue Moon
TTITLE6=Zing Went the Strings of My Heart
TTITLE7=How High the Moon
TTITLE8=Funk's Oats
EXTD=
EXTT0=
EXTT1=
EXTT2=
EXTT3=
EXTT4=
EXTT5=
EXTT6=
EXTT7=
EXTT8=
PLAYORDER=
